<svg id="Layer_1" data-name="Layer 1" xmlns="http://www.w3.org/2000/svg" viewBox="0 0 575.11 423.11"><title>sdnthailand Artwork</title><path d="M76.27,110a73.8,73.8,0,0,0-1.1,12.27q0,25.19,22.94,53.45a211.24,211.24,0,0,0,19,20.35q29.25,27.67,38.09,48.47a43.29,43.29,0,0,1,3.88,16.81,42.65,42.65,0,0,1-.73,8.19q-8.44,41.93-62.32,60a219.71,219.71,0,0,1-69.27,11.25l-9.9,50.45q10.85,0,21.3-.64,67.74-4,119.82-34.13,54.24-31.69,64.51-86.92A98.18,98.18,0,0,0,224,252.87a88.77,88.77,0,0,0-7.85-36.67q-9.69-21.66-31.37-40.71a245.92,245.92,0,0,1-24.91-24.72Q141.19,129,141.15,113.1a26.79,26.79,0,0,1,.37-4.77Q150,66.75,199.43,57.88a141.61,141.61,0,0,1,22.36-1.36l5-26.64,4.94-26.54q-42.88,0-84.67,19.77Q86.89,51.4,76.27,110Z" fill="#f58220"/><path d="M233.38,254.27a108.16,108.16,0,0,1-1.59,18.13c-7.3,39.29-30.37,70.47-68.59,92.8-36.28,21-78.5,32.85-125.77,35.4L34,418q81,0,141.12-34.77,54.26-31.71,64.52-86.93a99.18,99.18,0,0,0,1.46-16.71,88.93,88.93,0,0,0-8.62-38.32A99.94,99.94,0,0,1,233.38,254.27Z" opacity="0.63"/><path d="M229.75,66.38h-7a134.69,134.69,0,0,0-21,1.24c-29.4,5.27-46.12,19.6-51,43.79a20.08,20.08,0,0,0-.19,3.09c0,4.73,1.83,11.52,8.06,20.93,0-.12,0-.26.05-.37q8.43-41.59,57.91-50.46a142.92,142.92,0,0,1,22.36-1.36l9.9-53.18q-6.21,0-12.39.43Z" opacity="0.63"/><path d="M331.8,160.35q-19.8-14.58-57-14.57l-23,121.32q3.85.38,6.67.49c.87,0,1.68.06,2.41.06q24.75,0,52.74-16.11t33.88-45.92a64.17,64.17,0,0,0,1.06-11.4,43.25,43.25,0,0,0-3.89-18.62A39.94,39.94,0,0,0,331.8,160.35Zm-41.6,1.87q15.56,1.42,26.05,9.2a32,32,0,0,1,10.91,13.27,31.27,31.27,0,0,1,2.4,12.38,46.21,46.21,0,0,1-.82,8.55q-4.49,21.69-25.69,34.3A90.5,90.5,0,0,1,280.64,249q-3.42.93-7.05,1.68Z" fill="#f58220"/><polygon points="431.5 257.82 427.52 257.82 424.75 257.82 423 267.1 429.75 267.1 441.85 267.1 443.61 257.82 440.84 257.82 431.5 257.82" fill="#f58220"/><path d="M445.86,146.21,442,166.82a78.17,78.17,0,0,0-10.37-6.47,145.88,145.88,0,0,0-15.68-6.47,118.86,118.86,0,0,0-23.68-6A150.9,150.9,0,0,0,372.79,146l-23,121.11h18.62L388,163.64a112.32,112.32,0,0,1,20.86,5.26,117.09,117.09,0,0,1,29.82,15.34l-.79,4.16-.81,4.29h18.85l7.25-38.33,1.54-8.15Z" fill="#f58220"/><path d="M351.56,194.67a66.6,66.6,0,0,1-1.11,11.88v0c-4.07,20.59-15.91,36.66-35.19,47.76-19,10.93-37.19,16.47-54.09,16.47-.88,0-1.86,0-2.93-.08l-.94,4.95q5.65.56,9.08.55,24.75,0,52.73-16.11T353,214.21a64,64,0,0,0,1.06-11.4,43.94,43.94,0,0,0-3.3-17.32A51.32,51.32,0,0,1,351.56,194.67Z" opacity="0.63"/><path d="M295.71,170.81q14.64,1.33,24.78,8.3a33.89,33.89,0,0,0-5.55-5c-6-4.46-13.48-7.29-22.23-8.42l-15.39,81.91c1.42-.34,2.81-.71,4.18-1.1Z" opacity="0.63"/><path d="M435.7,187.35l.27-1.44a119.68,119.68,0,0,0-45.49-18.73L371,270.27H356.35l-1,5.42h18.62L393.5,172.23a112.32,112.32,0,0,1,20.86,5.26A117.61,117.61,0,0,1,435.7,187.35Z" opacity="0.63"/><polygon points="444.4 270.27 429.53 270.27 428.5 275.69 447.36 275.69 450.65 258.27 446.67 258.27 444.4 270.27" opacity="0.63"/><polygon points="470.22 154.81 466.24 154.81 458.99 193.14 462.97 193.14 470.22 154.81" opacity="0.63"/><polygon points="395.64 251.21 545.82 137.73 572.98 305.15 507.35 233.79 395.64 251.21" fill="#ac4499"/></svg>